<svg id="Слой_1" data-name="Слой 1" xmlns="http://www.w3.org/2000/svg" viewBox="0 0 501 501"><title>sunmask</title>
<defs>
    <clipPath id="mask">
<path d="M491.32,315.49A250.38,250.38,0,0,0,500,250C500,111.93,388.07,0,250,0S0,111.93,0,250a250.38,250.38,0,0,0,8.68,65.49Z" transform="translate(0.5 0.5)" style="fill:#e7b111;stroke:#000;stroke-miterlimit:10"/><path d="M52,402.65a250.5,250.5,0,0,0,27.74,30.4H420.24A250.5,250.5,0,0,0,448,402.65Z" transform="translate(0.5 0.5)" style="fill:#e7b111;stroke:#000;stroke-miterlimit:10"/><path d="M118.73,462.78a250.1,250.1,0,0,0,262.54,0Z" transform="translate(0.5 0.5)" style="fill:#e7b111;stroke:#000;stroke-miterlimit:10"/><path d="M18.51,344.54A248,248,0,0,0,30,368.86H470a248,248,0,0,0,11.51-24.32Z" transform="translate(0.5 0.5)" style="fill:#e7b111;stroke:#000;stroke-miterlimit:10"/>
</clipPath></defs>
</svg>